<?xml version="1.0" encoding="utf-8"?>
<!-- Svg Vector Icons : http://www.onlinewebfonts.com/icon -->
<!DOCTYPE svg PUBLIC "-//W3C//DTD SVG 1.1//EN" "http://www.w3.org/Graphics/SVG/1.1/DTD/svg11.dtd">
<svg version="1.1" xmlns="http://www.w3.org/2000/svg" xmlns:xlink="http://www.w3.org/1999/xlink" x="0px" y="0px" viewBox="0 0 256 256" enable-background="new 0 0 256 256" xml:space="preserve">
<metadata> Svg Vector Icons : http://www.onlinewebfonts.com/icon </metadata>
<g><g><g><path fill="#000000" d="M25.2,12.3c-4.9,1-10.6,5.3-12.9,9.7c-2.4,4.6-2.3,1.6-2.3,78.3c0,78.1-0.1,74.6,2.5,79.1c1.7,2.9,5.2,6,8.5,7.7l3,1.5l27.1,0.1l27.1,0.1l1.9-1.4c3-2,9.3-5.1,13.8-6.7c4.1-1.4,4.1-1.4,5.9-4.4l1.8-2.9l-36-0.2c-40.1-0.3-37.6,0-39.2-3.4c-0.7-1.5-0.7-7.4-0.7-69.6c0-66.5,0-67.9,0.9-69.4c0.5-0.8,1.4-1.8,2.2-2.3c1.2-0.8,5.6-0.8,99.3-0.8h98.1l1.3,1c2.6,1.9,2.9,3.3,2.9,12.3v8.2l4.1-2c4.3-2.2,8.3-3.5,10.3-3.5h1.3v-7.5c0-4.8-0.2-8.3-0.6-9.8c-1.9-7.2-7.7-12.6-15-14C227.3,11.7,28.2,11.7,25.2,12.3z"/><path fill="#000000" d="M241.9,48.2c-8.9,2.9-26.4,14.5-45.2,30.2c-37.5,31.3-80.8,77.7-93.8,100.6l-2,3.5l-4.3,1.5c-8.9,3-16.4,7.6-22.4,13.6c-4.2,4.3-7.1,8.2-13.3,18c-9.3,14.7-14.2,19.7-22.8,23l-3.6,1.4H22.2H10v2.1v2.1h66.8h66.8v-2.1V240l-45.7,0c-27.1,0-43.8-0.2-41-0.5c7.3-0.6,14.1-1.8,18.9-3.3c8.2-2.6,12.2-5.3,19.2-12.4c10-10.5,14.9-18.6,16.5-27.5c0.4-2.1,0.7-3.8,0.8-3.9c0.1,0,1.6-0.8,3.4-1.7c26.1-13.2,76.1-61.5,108.7-104.9C236.6,69.6,244.5,56,245.8,49C246.2,47,245.8,46.9,241.9,48.2z M108.2,189.4c0,5.2-0.9,9.7-2.7,13.6c-1.3,2.9-1.5,3-4.8,4.5c-1.9,0.9-5.4,2.3-8,3c-3.9,1.3-5.4,1.5-10.6,1.8c-4.7,0.1-6.9,0-9.6-0.6c-1.9-0.5-3.5-1-3.5-1.2c0-0.8,4.8-7,8.2-10.3c6.8-6.9,15.8-11.7,26.6-14.2c2-0.5,3.8-0.9,4.1-0.9C108,185.1,108.2,187.1,108.2,189.4z"/><path fill="#000000" d="M243.3,64.5c-1.3,2.4-4.8,8-7.7,12.4l-5.3,7.8v41.8c0,39.6,0,41.9-0.8,43.4c-0.5,0.9-1.6,2-2.4,2.4c-1.5,0.8-3.6,0.8-40.6,0.8h-39l-4.7,3.8c-8.9,7.1-17,12.7-23.9,16.5l-3,1.7l-0.6,3.1c-1.1,5.8-4.2,12.3-8.8,18.3c-1.2,1.6-2.4,3.1-2.5,3.5c-0.2,0.4,12.4,0.5,49.2,0.5h49.6v-2.1v-2.1h-2.1c-3.6,0-11.6-4.5-16.8-9.4c-5-4.7-8.1-10.6-8.4-15.9l-0.1-2.1l28.3-0.2l28.3-0.2l3-1.5c3.3-1.7,6.8-4.8,8.5-7.7c2.6-4.5,2.5-2.5,2.4-63.4l-0.1-56L243.3,64.5z"/></g></g></g>
</svg>